<?xml version="1.0" standalone="no"?>
<!DOCTYPE svg PUBLIC "-//W3C//DTD SVG 20010904//EN"
 "http://www.w3.org/TR/2001/REC-SVG-20010904/DTD/svg10.dtd">
<svg version="1.0" xmlns="http://www.w3.org/2000/svg"
 width="670.000000pt" height="372.000000pt" viewBox="0 0 670.000000 372.000000"
 preserveAspectRatio="xMidYMid meet">

<g transform="translate(0.000000,372.000000) scale(0.100000,-0.100000)"
fill="#000000" stroke="none">
<path d="M132 1973 l3 -918 920 0 920 0 3 918 2 917 -925 0 -925 0 2 -917z
m1746 0 l-3 -818 -820 0 -820 0 -3 818 -2 817 825 0 825 0 -2 -817z"/>
<path d="M1623 2496 c-48 -47 -168 -102 -243 -111 -25 -3 -81 -12 -125 -21
-44 -8 -129 -19 -190 -24 -257 -20 -429 -126 -538 -332 -38 -71 -40 -80 -17
-68 11 6 20 14 20 19 0 13 79 60 153 92 54 23 101 33 201 44 406 45 547 88
660 203 55 56 73 85 120 194 28 63 19 64 -41 4z"/>
<path d="M1450 2115 c-21 -25 -115 -66 -188 -82 -37 -8 -97 -21 -134 -29 -37
-8 -130 -18 -207 -24 -167 -11 -252 -32 -322 -79 -58 -39 -103 -106 -115 -167
l-7 -37 29 19 c26 18 70 31 160 49 17 3 128 7 245 9 l214 3 83 33 c60 24 98
47 137 84 30 28 55 55 55 59 0 5 9 22 20 38 19 25 53 129 46 137 -2 1 -9 -5
-16 -13z"/>
<path d="M1110 1668 c-15 -6 -111 -9 -232 -9 -214 2 -322 -12 -349 -45 -25
-30 37 -108 108 -135 138 -52 271 -15 441 124 85 70 95 92 32 65z"/>
<path d="M2548 2787 c-32 -12 -48 -45 -48 -97 0 -69 14 -84 108 -120 48 -18
90 -38 94 -44 14 -21 8 -47 -17 -72 -24 -24 -32 -25 -103 -22 -72 3 -77 1 -80
-19 -3 -19 3 -22 62 -28 131 -14 187 11 199 89 10 66 -1 94 -49 122 -23 14
-60 28 -81 31 -48 7 -73 29 -73 63 0 43 16 50 112 50 86 0 88 1 88 24 0 19 -6
24 -37 30 -55 9 -144 5 -175 -7z"/>
<path d="M2937 2598 c2 -106 6 -198 8 -204 2 -7 15 -9 29 -7 l26 5 2 177 c2
97 6 169 9 161 3 -8 18 -55 33 -105 68 -229 66 -225 101 -225 30 0 32 3 52 63
11 34 33 105 48 157 15 52 30 102 34 110 3 8 8 -66 11 -165 4 -152 7 -180 20
-179 8 1 21 2 28 3 9 1 12 48 12 201 l0 200 -59 0 c-59 0 -59 0 -66 -32 -6
-31 -22 -90 -60 -221 -18 -63 -31 -66 -40 -9 -4 20 -17 71 -30 112 -12 41 -27
91 -32 110 -9 35 -9 35 -70 38 l-61 3 5 -193z"/>
<path d="M3599 2763 c-6 -16 -15 -50 -20 -78 -5 -27 -16 -75 -24 -105 -9 -30
-20 -77 -25 -105 -4 -27 -11 -57 -15 -66 -4 -12 0 -18 17 -21 28 -5 50 1 44
11 -3 4 1 27 8 52 l13 44 75 3 75 3 17 -58 c16 -53 20 -58 44 -57 24 1 27 4
24 35 -2 19 -14 71 -28 115 -13 45 -24 90 -24 99 0 10 -9 49 -20 86 l-21 69
-65 0 c-61 0 -65 -1 -75 -27z m101 -65 c7 -24 18 -62 25 -85 7 -23 11 -44 7
-47 -3 -3 -30 -6 -59 -6 l-55 0 7 33 c24 128 30 147 45 147 11 0 21 -15 30
-42z"/>
<path d="M3990 2592 c0 -211 0 -213 47 -204 19 4 22 11 25 61 l3 56 47 3 48 3
27 -58 c25 -53 32 -59 66 -64 20 -3 37 -4 37 -2 0 2 -13 29 -30 60 -34 63 -37
81 -15 90 27 10 45 60 45 122 0 53 -4 65 -29 93 l-29 33 -121 3 -121 4 0 -200z
m224 108 c14 -27 17 -46 12 -73 -9 -46 -45 -67 -116 -67 l-50 0 0 90 0 91 68
-3 c65 -3 67 -4 86 -38z"/>
<path d="M4402 2768 c3 -20 10 -23 61 -26 l57 -3 0 -174 c0 -109 4 -175 10
-176 59 -7 55 -21 58 174 l2 177 55 0 c52 0 55 1 55 25 l0 25 -151 0 c-150 0
-150 0 -147 -22z"/>
<path d="M4850 2590 l0 -201 122 3 122 3 23 34 c32 48 31 104 -3 138 l-26 26
21 37 c25 45 26 68 5 114 -20 41 -39 46 -170 46 l-94 0 0 -200z m200 124 c26
-67 2 -94 -81 -94 l-59 0 0 60 0 60 65 0 c61 0 66 -2 75 -26z m3 -172 c20 -18
22 -44 6 -75 -16 -30 -28 -37 -69 -37 -73 0 -80 6 -80 71 0 55 1 58 28 61 45
6 96 -3 115 -20z"/>
<path d="M5310 2588 l0 -203 117 2 c65 1 124 2 131 2 8 1 12 10 10 24 -3 21
-8 22 -101 25 l-98 3 3 62 3 62 78 3 c74 3 77 4 77 27 0 24 -2 25 -80 25 l-80
0 0 60 0 59 98 3 c92 3 97 4 100 26 3 22 3 22 -127 22 l-131 0 0 -202z"/>
<path d="M5788 2688 c-81 -314 -80 -309 -35 -301 20 4 28 15 39 56 l15 52 76
3 76 3 6 -38 c13 -74 23 -85 66 -75 15 3 15 8 -2 65 -10 34 -19 71 -19 82 0
11 -11 55 -24 97 -13 42 -21 79 -19 82 3 3 0 21 -7 40 l-12 36 -67 0 -67 0
-26 -102z m121 15 c18 -69 28 -132 23 -138 -9 -9 -112 -5 -112 4 0 5 9 38 20
73 11 34 20 71 20 81 0 10 8 17 20 17 14 0 22 -10 29 -37z"/>
<path d="M6205 2590 c0 -110 3 -200 8 -201 50 -8 52 -5 57 56 l5 60 45 3 45 3
29 -61 c17 -35 35 -60 45 -61 9 0 24 -2 34 -4 22 -4 22 -4 -14 72 -25 53 -29
67 -18 74 8 5 16 9 19 9 11 0 40 81 40 110 0 16 -7 48 -17 71 -22 56 -56 69
-180 69 l-98 0 0 -200z m203 138 c18 -23 24 -59 18 -103 -8 -50 -32 -65 -106
-65 l-50 0 0 90 0 90 64 0 c39 0 67 -5 74 -12z"/>
<path d="M4720 1646 l0 -494 46 -4 c25 -2 47 -1 50 1 2 2 4 97 4 211 0 280 18
348 104 392 29 15 60 22 106 22 77 1 119 -18 149 -67 20 -33 21 -48 21 -295
l0 -260 50 -4 51 -3 -3 290 -3 290 -28 42 c-38 55 -101 85 -192 91 -87 5 -176
-22 -217 -68 -15 -16 -30 -30 -33 -30 -3 0 -5 86 -5 190 l0 190 -50 0 -50 0 0
-494z"/>
<path d="M2476 2080 c-2 -4 -1 -35 3 -77 1 -10 55 -13 236 -13 132 0 235 -4
235 -9 0 -5 -49 -83 -108 -172 -60 -90 -115 -175 -122 -189 -7 -14 -22 -37
-34 -51 -18 -22 -37 -52 -111 -168 -38 -60 -73 -110 -93 -135 -18 -22 -22 -39
-20 -72 l3 -44 320 -1 320 -1 3 46 3 46 -255 0 c-141 0 -256 3 -256 7 0 11 71
125 92 147 10 11 18 23 18 27 0 5 33 56 73 114 39 59 77 114 82 123 6 9 29 45
53 79 23 35 42 65 42 67 0 2 18 30 40 62 88 128 91 134 88 175 l-3 40 -303 2
c-167 1 -305 0 -306 -3z"/>
<path d="M3391 1844 c-43 -16 -120 -71 -121 -87 0 -4 -9 -17 -20 -29 -48 -52
-72 -231 -46 -343 27 -114 81 -179 185 -224 49 -21 66 -23 166 -19 75 3 124
10 153 22 40 17 42 20 42 62 0 24 -2 44 -5 44 -3 0 -22 -7 -43 -16 -22 -10
-77 -18 -138 -21 -88 -5 -105 -3 -141 15 -74 38 -123 125 -123 218 l0 24 241
0 242 0 -7 92 c-9 137 -53 209 -154 254 -63 29 -162 32 -231 8z m189 -87 c48
-25 87 -87 93 -149 l4 -38 -189 0 c-176 0 -189 1 -184 18 3 9 9 35 15 57 18
71 104 134 182 135 20 0 55 -10 79 -23z"/>
<path d="M4150 1839 c-25 -11 -58 -34 -75 -51 l-30 -31 -9 46 -9 47 -44 0 -43
0 0 -510 0 -510 50 0 50 0 0 200 c0 119 4 200 9 200 6 0 17 -10 25 -22 47 -67
232 -91 325 -42 89 46 134 122 151 254 20 162 -13 294 -93 373 -67 65 -213 87
-307 46z m183 -83 c27 -12 54 -32 60 -43 52 -90 51 -84 51 -208 0 -108 -2
-125 -24 -169 -46 -91 -107 -121 -215 -107 -56 8 -125 53 -125 83 0 9 -4 19
-9 22 -17 11 -34 138 -28 210 10 132 52 200 137 224 58 17 102 13 153 -12z"/>
<path d="M6375 1838 c-48 -24 -105 -77 -105 -96 0 -23 -25 -7 -28 19 -10 88
-10 89 -52 89 l-40 0 0 -350 0 -350 28 -1 c44 -2 67 2 74 14 3 6 7 101 8 211
1 227 6 263 47 315 45 55 106 83 175 79 55 -4 56 -4 62 25 13 66 12 67 -61 67
-48 -1 -80 -7 -108 -22z"/>
<path d="M5396 1813 c9 -21 25 -57 35 -81 11 -23 19 -48 19 -55 0 -7 13 -39
30 -72 16 -33 30 -66 30 -73 0 -7 11 -35 25 -62 14 -27 25 -54 25 -59 0 -6 11
-35 25 -65 14 -30 25 -59 25 -65 0 -5 11 -32 25 -59 31 -62 31 -93 0 -157 -14
-27 -25 -55 -25 -61 0 -7 -18 -28 -40 -48 -38 -34 -44 -36 -110 -36 l-70 0 0
-39 c0 -46 9 -51 89 -51 78 0 149 36 196 100 19 26 35 53 35 59 0 6 9 28 20
50 12 21 23 51 26 66 3 15 14 46 26 69 12 22 24 55 29 71 4 17 17 55 30 85 12
30 33 83 45 118 13 34 36 92 51 130 15 37 27 70 26 74 -2 4 7 28 19 55 12 26
29 69 38 96 l17 47 -59 0 c-52 0 -58 -2 -58 -20 0 -12 -9 -37 -19 -58 -10 -20
-25 -59 -34 -87 -8 -27 -22 -68 -32 -90 -9 -22 -21 -53 -25 -70 -21 -77 -88
-250 -96 -247 -5 2 -28 58 -52 125 -23 67 -49 138 -57 157 -7 19 -25 66 -39
103 -15 38 -35 88 -46 112 -11 24 -20 51 -20 59 0 13 -12 16 -60 16 l-60 0 16
-37z"/>
</g>
</svg>
